<svg width="45" height="46" viewBox="0 0 45 46" fill="none" xmlns="http://www.w3.org/2000/svg">
<rect y="0.289551" width="45" height="45" rx="8" fill="url(#paint0_linear_27_391)"/>
<path d="M21.6791 20.8596C18.7348 20.7176 16.6882 21.7673 15.5393 24.0089C13.816 27.3712 15.2403 32.8729 20.9895 32.8729C26.7388 32.8729 26.9052 27.3174 26.9052 26.7354C26.9052 26.3473 26.9052 24.1779 26.9052 20.2269C28.1349 21.0058 29.1716 21.4747 30.0155 21.6335C30.8594 21.7923 31.3959 21.8627 31.625 21.8447V18.6068C30.8444 18.5127 30.1694 18.3333 29.6 18.0687C28.7458 17.6718 27.052 16.5702 27.052 14.9557C27.0532 14.9636 27.0532 14.5471 27.052 13.7063H23.493C23.4824 21.6143 23.4824 25.9573 23.493 26.7354C23.5089 27.9024 22.6035 29.5349 20.7679 29.5349C18.9323 29.5349 18.0269 27.9037 18.0269 26.8516C18.0269 26.2075 18.2481 25.2739 19.1627 24.5825C19.705 24.1726 20.4577 24.0089 21.6791 24.0089C21.6791 23.6311 21.6791 22.5813 21.6791 20.8596Z" stroke="white" stroke-width="1.5" stroke-linejoin="round"/>
<defs>
<linearGradient id="paint0_linear_27_391" x1="0" y1="45.2895" x2="45" y2="45.2895" gradientUnits="userSpaceOnUse">
<stop stop-color="#73E0A9"/>
<stop offset="1" stop-color="#5B68DF"/>
</linearGradient>
</defs>
</svg>
