<svg width="45" height="46" viewBox="0 0 45 46" fill="none" xmlns="http://www.w3.org/2000/svg">
<rect y="0.289551" width="45" height="45" rx="8" fill="url(#paint0_linear_27_400)"/>
<path d="M16.5317 16.4968C19.3033 16.3586 21.4591 16.2896 22.9989 16.2896C24.5389 16.2896 26.6954 16.3587 29.4684 16.4968C30.9695 16.5716 32.1835 17.7455 32.3087 19.2432C32.4355 20.7602 32.4989 22.0963 32.4989 23.2515C32.4989 24.4209 32.434 25.7756 32.304 27.3157C32.1792 28.7947 30.9916 29.9602 29.5104 30.057C27.1397 30.2121 24.9692 30.2896 22.9989 30.2896C21.0289 30.2896 18.8592 30.2121 16.4898 30.0571C15.0091 29.9602 13.8217 28.7955 13.6963 27.3171C13.5647 25.7655 13.4989 24.4103 13.4989 23.2515C13.4989 22.1066 13.5631 20.7701 13.6916 19.2418C13.8174 17.7447 15.0312 16.5716 16.5317 16.4968Z" stroke="white" stroke-width="1.5" stroke-linejoin="round"/>
<path d="M21.5 21.0941V25.4926C21.5 25.7292 21.6919 25.9211 21.9285 25.9211C22.0126 25.9211 22.0948 25.8964 22.1649 25.8501L25.4637 23.6698C25.6612 23.5393 25.7154 23.2734 25.5849 23.076C25.5537 23.0288 25.5135 22.9882 25.4665 22.9566L22.1677 20.7385C21.9713 20.6064 21.705 20.6586 21.5729 20.855C21.5254 20.9257 21.5 21.009 21.5 21.0941Z" stroke="white" stroke-width="1.5" stroke-linejoin="round"/>
<defs>
<linearGradient id="paint0_linear_27_400" x1="0" y1="45.2895" x2="45" y2="45.2895" gradientUnits="userSpaceOnUse">
<stop stop-color="#73E0A9"/>
<stop offset="1" stop-color="#5B68DF"/>
</linearGradient>
</defs>
</svg>
